name C:\Users\u0101727\Documents\MyRepositories\upper-imu-dc\OpenSim\subject0\MA\ResultsMA\grid_4nodes_9dim\angles_13.mot
datacolumns 10
datarows 33
range 1300.01000000 1300.33000000
endheader 
time	clav_prot	clav_elev	scapula_abduction	scapula_elevation	scapula_upward_rot	scapula_winging	plane_elv	shoulder_elv	axial_rot	
       1300.01000000	        -50.00000000	        -10.00000000	        -21.66666667	         10.00000000	         90.00000000	          0.00000000	         90.00000000	        100.00000000	        -30.00000000	
       1300.02000000	        -38.33333333	        -10.00000000	        -21.66666667	         10.00000000	         90.00000000	          0.00000000	         90.00000000	        100.00000000	        -30.00000000	
       1300.03000000	        -26.66666667	        -10.00000000	        -21.66666667	         10.00000000	         90.00000000	          0.00000000	         90.00000000	        100.00000000	        -30.00000000	
       1300.04000000	        -15.00000000	        -10.00000000	        -21.66666667	         10.00000000	         90.00000000	          0.00000000	         90.00000000	        100.00000000	        -30.00000000	
       1300.05000000	        -50.00000000	          0.00000000	        -21.66666667	         10.00000000	         90.00000000	          0.00000000	         90.00000000	        100.00000000	        -30.00000000	
       1300.06000000	        -38.33333333	          0.00000000	        -21.66666667	         10.00000000	         90.00000000	          0.00000000	         90.00000000	        100.00000000	        -30.00000000	
       1300.07000000	        -26.66666667	          0.00000000	        -21.66666667	         10.00000000	         90.00000000	          0.00000000	         90.00000000	        100.00000000	        -30.00000000	
       1300.08000000	        -15.00000000	          0.00000000	        -21.66666667	         10.00000000	         90.00000000	          0.00000000	         90.00000000	        100.00000000	        -30.00000000	
       1300.09000000	        -50.00000000	         10.00000000	        -21.66666667	         10.00000000	         90.00000000	          0.00000000	         90.00000000	        100.00000000	        -30.00000000	
       1300.10000000	        -38.33333333	         10.00000000	        -21.66666667	         10.00000000	         90.00000000	          0.00000000	         90.00000000	        100.00000000	        -30.00000000	
       1300.11000000	        -26.66666667	         10.00000000	        -21.66666667	         10.00000000	         90.00000000	          0.00000000	         90.00000000	        100.00000000	        -30.00000000	
       1300.12000000	        -15.00000000	         10.00000000	        -21.66666667	         10.00000000	         90.00000000	          0.00000000	         90.00000000	        100.00000000	        -30.00000000	
       1300.13000000	        -50.00000000	         20.00000000	        -21.66666667	         10.00000000	         90.00000000	          0.00000000	         90.00000000	        100.00000000	        -30.00000000	
       1300.14000000	        -38.33333333	         20.00000000	        -21.66666667	         10.00000000	         90.00000000	          0.00000000	         90.00000000	        100.00000000	        -30.00000000	
       1300.15000000	        -26.66666667	         20.00000000	        -21.66666667	         10.00000000	         90.00000000	          0.00000000	         90.00000000	        100.00000000	        -30.00000000	
       1300.16000000	        -15.00000000	         20.00000000	        -21.66666667	         10.00000000	         90.00000000	          0.00000000	         90.00000000	        100.00000000	        -30.00000000	
       1300.17000000	        -50.00000000	        -10.00000000	         -3.33333333	         10.00000000	         90.00000000	          0.00000000	         90.00000000	        100.00000000	        -30.00000000	
       1300.18000000	        -38.33333333	        -10.00000000	         -3.33333333	         10.00000000	         90.00000000	          0.00000000	         90.00000000	        100.00000000	        -30.00000000	
       1300.19000000	        -26.66666667	        -10.00000000	         -3.33333333	         10.00000000	         90.00000000	          0.00000000	         90.00000000	        100.00000000	        -30.00000000	
       1300.20000000	        -15.00000000	        -10.00000000	         -3.33333333	         10.00000000	         90.00000000	          0.00000000	         90.00000000	        100.00000000	        -30.00000000	
       1300.21000000	        -50.00000000	          0.00000000	         -3.33333333	         10.00000000	         90.00000000	          0.00000000	         90.00000000	        100.00000000	        -30.00000000	
       1300.22000000	        -38.33333333	          0.00000000	         -3.33333333	         10.00000000	         90.00000000	          0.00000000	         90.00000000	        100.00000000	        -30.00000000	
       1300.23000000	        -26.66666667	          0.00000000	         -3.33333333	         10.00000000	         90.00000000	          0.00000000	         90.00000000	        100.00000000	        -30.00000000	
       1300.24000000	        -15.00000000	          0.00000000	         -3.33333333	         10.00000000	         90.00000000	          0.00000000	         90.00000000	        100.00000000	        -30.00000000	
       1300.25000000	        -50.00000000	         10.00000000	         -3.33333333	         10.00000000	         90.00000000	          0.00000000	         90.00000000	        100.00000000	        -30.00000000	
       1300.26000000	        -38.33333333	         10.00000000	         -3.33333333	         10.00000000	         90.00000000	          0.00000000	         90.00000000	        100.00000000	        -30.00000000	
       1300.27000000	        -26.66666667	         10.00000000	         -3.33333333	         10.00000000	         90.00000000	          0.00000000	         90.00000000	        100.00000000	        -30.00000000	
       1300.28000000	        -15.00000000	         10.00000000	         -3.33333333	         10.00000000	         90.00000000	          0.00000000	         90.00000000	        100.00000000	        -30.00000000	
       1300.29000000	        -50.00000000	         20.00000000	         -3.33333333	         10.00000000	         90.00000000	          0.00000000	         90.00000000	        100.00000000	        -30.00000000	
       1300.30000000	        -38.33333333	         20.00000000	         -3.33333333	         10.00000000	         90.00000000	          0.00000000	         90.00000000	        100.00000000	        -30.00000000	
       1300.31000000	        -26.66666667	         20.00000000	         -3.33333333	         10.00000000	         90.00000000	          0.00000000	         90.00000000	        100.00000000	        -30.00000000	
       1300.32000000	        -15.00000000	         20.00000000	         -3.33333333	         10.00000000	         90.00000000	          0.00000000	         90.00000000	        100.00000000	        -30.00000000	
       1300.33000000	        -50.00000000	        -10.00000000	         15.00000000	         10.00000000	         90.00000000	          0.00000000	         90.00000000	        100.00000000	        -30.00000000	
